<svg width="96" height="49" viewBox="0 0 96 49" fill="none" xmlns="http://www.w3.org/2000/svg">
<path d="M96 11.5V43H85.5L80.25 40.375L75 43H43.5L38.25 40.375L33 43L27.75 40.375L22.5 43H0V27.25H69.75V1H85.5C91.2748 1 96 5.72484 96 11.5Z" fill="#EFD923"/>
<path d="M33 43C33 45.8875 30.6375 48.25 27.75 48.25C24.8625 48.25 22.5 45.8875 22.5 43L27.75 40.375L33 43Z" fill="#1B6CCB"/>
<path d="M43.5 43C43.5 45.8875 41.1375 48.25 38.25 48.25C35.3625 48.25 33 45.8875 33 43L38.25 40.375L43.5 43Z" fill="#1B6CCB"/>
<path d="M85.5 43C85.5 45.8875 83.1375 48.25 80.25 48.25C77.3625 48.25 75 45.8875 75 43L80.25 40.375L85.5 43Z" fill="#1B6CCB"/>
<path d="M90.75 27.25H96V32.5H90.75V27.25Z" fill="#18549A"/>
<path d="M90.75 22V11.5C90.75 8.60577 88.3942 6.25 85.5 6.25H75V22H90.75Z" fill="#18549A"/>
<path d="M33 43H22.5C22.5 40.1125 24.8625 37.75 27.75 37.75C30.6375 37.75 33 40.1125 33 43Z" fill="#18549A"/>
<path d="M43.5 43H33C33 40.1125 35.3625 37.75 38.25 37.75C41.1375 37.75 43.5 40.1125 43.5 43Z" fill="#18549A"/>
<path d="M85.5 43H75C75 40.1125 77.3625 37.75 80.25 37.75C83.1375 37.75 85.5 40.1125 85.5 43Z" fill="#18549A"/>
<path d="M57.6001 21C57.6001 24.726 54.5761 27.75 50.8501 27.75C47.1241 27.75 44.1001 24.726 44.1001 21C44.1001 19.272 44.7481 17.7059 45.8011 16.5179L47.9611 14.898C48.8251 14.4929 49.8241 14.25 50.8501 14.25C54.5761 14.25 57.6001 17.274 57.6001 21Z" fill="#4DB5FF"/>
<path d="M27.765 22.35C27.1439 25.428 24.417 27.75 21.15 27.75C17.424 27.75 14.4 24.726 14.4 21C14.4 17.274 17.424 14.25 21.15 14.25C24.4171 14.25 27.1439 16.572 27.765 19.65V22.35Z" fill="#4DB5FF"/>
<path d="M50.85 11.55C49.203 11.55 47.6911 12.0089 46.3411 12.738L47.961 14.898L45.801 16.5179L44.154 14.3309C42.453 16.0319 41.4 18.4079 41.4 21C41.4 21.4589 41.427 21.9179 41.5079 22.35H27.765V19.65H30.6C30.6 15.1679 26.9819 11.55 22.5 11.55H19.8C16.8301 11.55 14.4 9.11992 14.4 6.15H27.9L34.65 8.85L41.4 6.15V3.45H36V0.75H44.1C46.827 0.75 49.311 1.776 51.228 3.45L54.5489 8.85C54.792 9.714 54.8999 10.6049 54.8999 11.55H50.85Z" fill="#80EAFF"/>
<path d="M53.5501 21.0001C53.5501 22.4851 52.3351 23.7001 50.8501 23.7001C49.3651 23.7001 48.1501 22.4851 48.1501 21.0001C48.1501 20.6221 48.2311 20.271 48.3661 19.9471L45.8011 16.518C46.3951 15.843 47.1511 15.2761 47.9611 14.8981L50.5532 18.354C50.6611 18.354 50.7422 18.3001 50.8502 18.3001C52.3351 18.3001 53.5501 19.5151 53.5501 21.0001Z" fill="#3377FF"/>
<path d="M27.9 21C27.9 21.4589 27.846 21.9179 27.765 22.35H19.8V19.65H27.765C27.846 20.0819 27.9 20.5409 27.9 21Z" fill="#3377FF"/>
<path d="M54.549 8.85007H49.5C48.015 8.85007 46.8 7.63507 46.8 6.15007V3.45007H51.228C52.821 4.85399 54.009 6.71699 54.549 8.85007Z" fill="#4DB5FF"/>
<path d="M41.4 6.15002L38.7 8.85002H30.6L27.9 6.15002H41.4Z" fill="#4DB5FF"/>
<path d="M33.3 16.9501H38.7V19.6501H33.3V16.9501Z" fill="#4DB5FF"/>
</svg>
