<svg width="97" height="59" viewBox="0 0 97 59" fill="none" xmlns="http://www.w3.org/2000/svg">
<path d="M97 21.5V53H86.5L81.25 50.375L76 53H44.5L39.25 50.375L34 53L28.75 50.375L23.5 53H1V37.25H70.75V11H86.5C92.2748 11 97 15.7248 97 21.5Z" fill="#EFD923"/>
<path d="M34 53C34 55.8875 31.6375 58.25 28.75 58.25C25.8625 58.25 23.5 55.8875 23.5 53L28.75 50.375L34 53Z" fill="#1B6CCB"/>
<path d="M44.5 53C44.5 55.8875 42.1375 58.25 39.25 58.25C36.3625 58.25 34 55.8875 34 53L39.25 50.375L44.5 53Z" fill="#1B6CCB"/>
<path d="M86.5 53C86.5 55.8875 84.1375 58.25 81.25 58.25C78.3625 58.25 76 55.8875 76 53L81.25 50.375L86.5 53Z" fill="#1B6CCB"/>
<path d="M91.75 37.25H97V42.5H91.75V37.25Z" fill="#18549A"/>
<path d="M91.75 32V21.5C91.75 18.6058 89.3942 16.25 86.5 16.25H76V32H91.75Z" fill="#18549A"/>
<path d="M34 53H23.5C23.5 50.1125 25.8625 47.75 28.75 47.75C31.6375 47.75 34 50.1125 34 53Z" fill="#18549A"/>
<path d="M44.5 53H34C34 50.1125 36.3625 47.75 39.25 47.75C42.1375 47.75 44.5 50.1125 44.5 53Z" fill="#18549A"/>
<path d="M86.5 53H76C76 50.1125 78.3625 47.75 81.25 47.75C84.1375 47.75 86.5 50.1125 86.5 53Z" fill="#18549A"/>
<path d="M40.625 25.125V29.1875L22.3438 33.25L4.0625 29.1875V25.125H0V17H8.125L10.1562 21.0625L12.1875 17H20.3125V0.75H36.5625L44.6875 17V21.0625L40.625 25.125Z" fill="#80EAFF"/>
<path d="M44.6875 33.25C44.6875 35.4844 42.8594 37.3125 40.625 37.3125H4.0625C1.82812 37.3125 0 35.4844 0 33.25C0 31.0156 1.82812 29.1875 4.0625 29.1875L22.3438 33.25L40.625 29.1875C42.8594 29.1875 44.6875 31.0156 44.6875 33.25Z" fill="#4DB5FF"/>
<path d="M65 33.25V37.3125H60.9375C54.1939 37.3125 48.75 31.8686 48.75 25.125H44.6875L40.625 23.0938L44.6875 21.0625H48.75V17H56.875V29.1875C56.875 31.4219 58.7031 33.25 60.9375 33.25H65Z" fill="#4DB5FF"/>
<path d="M12.1875 10.9062V17L10.1562 21.0625L8.125 17V10.9062C8.125 9.76862 7.23138 8.875 6.09375 8.875H4.0625V4.8125H6.09375C9.46575 4.8125 12.1875 7.53425 12.1875 10.9062Z" fill="#4DB5FF"/>
<path d="M40.146 17L34.0512 4.8125H24.375V17H40.146Z" fill="#4DB5FF"/>
<path d="M36.5625 21.0625H44.6875V25.125H36.5625V21.0625Z" fill="#3377FF"/>
<path d="M8.125 17H12.1875V21.0625H8.125V17Z" fill="#3377FF"/>
<path d="M4.0625 29.1875H40.625V33.25H4.0625V29.1875Z" fill="#3377FF"/>
</svg>
