<svg width="84" height="64" viewBox="0 0 84 64" fill="none" xmlns="http://www.w3.org/2000/svg">
<path d="M84 26.75V58.25H73.5L68.25 55.625L63 58.25H31.5L26.25 55.625L21 58.25L15.75 55.625L10.5 58.25H0V42.5H42L47.25 45.125L52.5 42.5H57.75V16.25H73.5C79.2748 16.25 84 20.9748 84 26.75Z" fill="#EFD923"/>
<path d="M21 58.25C21 61.1375 18.6375 63.5 15.75 63.5C12.8625 63.5 10.5 61.1375 10.5 58.25L15.75 55.625L21 58.25Z" fill="#1B6CCB"/>
<path d="M31.5 58.25C31.5 61.1375 29.1375 63.5 26.25 63.5C23.3625 63.5 21 61.1375 21 58.25L26.25 55.625L31.5 58.25Z" fill="#1B6CCB"/>
<path d="M73.5 58.25C73.5 61.1375 71.1375 63.5 68.25 63.5C65.3625 63.5 63 61.1375 63 58.25L68.25 55.625L73.5 58.25Z" fill="#1B6CCB"/>
<path d="M5.25 0.5H10.5L13.125 3.125L10.5 5.75H5.25V0.5Z" fill="#1B6CCB"/>
<path d="M52.5 0.5V42.5L47.25 45.125L42 42.5V5.75H15.75L13.125 3.125L15.75 0.5H52.5Z" fill="#1B6CCB"/>
<path d="M21 26.75V29.375C21 33.7323 17.4827 37.25 13.125 37.25C8.76734 37.25 5.25 33.7323 5.25 29.375C5.25 26.435 6.8775 23.7575 9.45 22.3923C10.08 22.0773 10.5 21.2375 10.5 20.2922V5.75L13.125 3.125L15.75 5.75V20.2923C15.75 23.2323 14.2798 25.8052 11.9177 27.065C11.0248 27.485 10.5 28.3775 10.5 29.375C10.5 30.8448 11.6548 32 13.125 32C14.5952 32 15.75 30.8448 15.75 29.375V26.75H21Z" fill="#EFD923"/>
<path d="M78.75 42.5H84V47.75H78.75V42.5Z" fill="#18549A"/>
<path d="M78.75 37.25V26.75C78.75 23.8558 76.3942 21.5 73.5 21.5H63V37.25H78.75Z" fill="#18549A"/>
<path d="M10.5 0.5H15.75V5.75H10.5V0.5Z" fill="#18549A"/>
<path d="M42 42.5H52.5V47.75H42V42.5Z" fill="#18549A"/>
<path d="M21 58.25H10.5C10.5 55.3625 12.8625 53 15.75 53C18.6375 53 21 55.3625 21 58.25Z" fill="#18549A"/>
<path d="M31.5 58.25H21C21 55.3625 23.3625 53 26.25 53C29.1375 53 31.5 55.3625 31.5 58.25Z" fill="#18549A"/>
<path d="M73.5 58.25H63C63 55.3625 65.3625 53 68.25 53C71.1375 53 73.5 55.3625 73.5 58.25Z" fill="#18549A"/>
</svg>
